%TF.GenerationSoftware,KiCad,Pcbnew,8.0.0-rc1-67-g7b24167398*%
%TF.CreationDate,2024-01-29T15:53:43-08:00*%
%TF.ProjectId,test,74657374-2e6b-4696-9361-645f70636258,rev?*%
%TF.SameCoordinates,Original*%
%TF.FileFunction,Paste,Top*%
%TF.FilePolarity,Positive*%
%FSLAX46Y46*%
G04 Gerber Fmt 4.6, Leading zero omitted, Abs format (unit mm)*
G04 Created by KiCad (PCBNEW 8.0.0-rc1-67-g7b24167398) date 2024-01-29 15:53:43*
%MOMM*%
%LPD*%
G01*
G04 APERTURE LIST*
G04 Aperture macros list*
%AMRoundRect*
0 Rectangle with rounded corners*
0 $1 Rounding radius*
0 $2 $3 $4 $5 $6 $7 $8 $9 X,Y pos of 4 corners*
0 Add a 4 corners polygon primitive as box body*
4,1,4,$2,$3,$4,$5,$6,$7,$8,$9,$2,$3,0*
0 Add four circle primitives for the rounded corners*
1,1,$1+$1,$2,$3*
1,1,$1+$1,$4,$5*
1,1,$1+$1,$6,$7*
1,1,$1+$1,$8,$9*
0 Add four rect primitives between the rounded corners*
20,1,$1+$1,$2,$3,$4,$5,0*
20,1,$1+$1,$4,$5,$6,$7,0*
20,1,$1+$1,$6,$7,$8,$9,0*
20,1,$1+$1,$8,$9,$2,$3,0*%
G04 Aperture macros list end*
%ADD10RoundRect,0.243750X-0.456250X0.243750X-0.456250X-0.243750X0.456250X-0.243750X0.456250X0.243750X0*%
%ADD11RoundRect,0.250000X0.450000X-0.262500X0.450000X0.262500X-0.450000X0.262500X-0.450000X-0.262500X0*%
%ADD12RoundRect,0.250000X-0.262500X-0.450000X0.262500X-0.450000X0.262500X0.450000X-0.262500X0.450000X0*%
%ADD13RoundRect,0.250000X0.250000X0.475000X-0.250000X0.475000X-0.250000X-0.475000X0.250000X-0.475000X0*%
%ADD14RoundRect,0.150000X-0.825000X-0.150000X0.825000X-0.150000X0.825000X0.150000X-0.825000X0.150000X0*%
%ADD15R,2.000000X1.500000*%
%ADD16R,2.000000X3.800000*%
%ADD17RoundRect,0.250000X-0.250000X-0.475000X0.250000X-0.475000X0.250000X0.475000X-0.250000X0.475000X0*%
G04 APERTURE END LIST*
D10*
%TO.C,D1*%
X100965000Y-56530000D03*
X100965000Y-58405000D03*
%TD*%
D11*
%TO.C,R6*%
X102235000Y-53617500D03*
X102235000Y-51792500D03*
%TD*%
D12*
%TO.C,R4*%
X136377500Y-53975000D03*
X138202500Y-53975000D03*
%TD*%
D11*
%TO.C,R5*%
X100965000Y-62150000D03*
X100965000Y-60325000D03*
%TD*%
D13*
%TO.C,C2*%
X107630000Y-62065000D03*
X105730000Y-62065000D03*
%TD*%
D14*
%TO.C,U2*%
X142370000Y-53975000D03*
X142370000Y-55245000D03*
X142370000Y-56515000D03*
X142370000Y-57785000D03*
X142370000Y-59055000D03*
X142370000Y-60325000D03*
X142370000Y-61595000D03*
X142370000Y-62865000D03*
X147320000Y-62865000D03*
X147320000Y-61595000D03*
X147320000Y-60325000D03*
X147320000Y-59055000D03*
X147320000Y-57785000D03*
X147320000Y-56515000D03*
X147320000Y-55245000D03*
X147320000Y-53975000D03*
%TD*%
D12*
%TO.C,R1*%
X136377500Y-59690000D03*
X138202500Y-59690000D03*
%TD*%
%TO.C,R2*%
X136377500Y-57785000D03*
X138202500Y-57785000D03*
%TD*%
D15*
%TO.C,U1*%
X101625000Y-65645000D03*
X101625000Y-67945000D03*
D16*
X107925000Y-67945000D03*
D15*
X101625000Y-70245000D03*
%TD*%
D17*
%TO.C,C1*%
X107000000Y-76200000D03*
X108900000Y-76200000D03*
%TD*%
D12*
%TO.C,R3*%
X136377500Y-55880000D03*
X138202500Y-55880000D03*
%TD*%
D13*
%TO.C,C3*%
X107630000Y-59055000D03*
X105730000Y-59055000D03*
%TD*%
M02*
