M48
; DRILL file {KiCad 8.0.0-rc1-67-g7b24167398} date 2024-01-29T15:55:49-0800
; FORMAT={-:-/ absolute / inch / decimal}
; #@! TF.CreationDate,2024-01-29T15:55:49-08:00
; #@! TF.GenerationSoftware,Kicad,Pcbnew,8.0.0-rc1-67-g7b24167398
; #@! TF.FileFunction,Plated,1,2,PTH
FMAT,2
INCH
; #@! TA.AperFunction,Plated,PTH,ViaDrill
T1C0.0157
; #@! TA.AperFunction,Plated,PTH,ComponentDrill
T2C0.0335
; #@! TA.AperFunction,Plated,PTH,ComponentDrill
T3C0.0354
; #@! TA.AperFunction,Plated,PTH,ComponentDrill
T4C0.0394
; #@! TA.AperFunction,Plated,PTH,ComponentDrill
T5C0.0400
; #@! TA.AperFunction,Plated,PTH,ComponentDrill
T6C0.0433
; #@! TA.AperFunction,Plated,PTH,ComponentDrill
T7C0.0472
; #@! TA.AperFunction,Plated,PTH,ComponentDrill
T8C0.0512
; #@! TA.AperFunction,Plated,PTH,ComponentDrill
T9C0.0591
; #@! TA.AperFunction,Plated,PTH,ComponentDrill
T10C0.0866
%
G90
G05
T1
X5.5Y-2.125
X5.5026Y-2.1776
X5.5026Y-2.2526
X5.5026Y-2.3276
X5.9Y-2.125
T2
X6.225Y-2.375
X6.225Y-2.675
X7.125Y-2.375
X7.125Y-2.675
T3
X3.7787Y-3.1213
X3.7787Y-3.2
X3.7787Y-3.2787
T4
X5.9295Y-3.6043
X5.9295Y-3.7043
X5.9295Y-3.8043
X5.9295Y-3.9043
T5
X4.725Y-2.5665
X4.725Y-3.1665
X4.825Y-2.5665
X4.825Y-3.1665
X4.925Y-2.5665
X4.925Y-3.1665
X5.025Y-2.5665
X5.025Y-3.1665
X5.125Y-2.5665
X5.125Y-3.1665
X5.225Y-2.5665
X5.225Y-3.1665
X5.325Y-2.5665
X5.325Y-3.1665
T6
X4.2191Y-3.4978
X4.2191Y-3.675
X4.475Y-3.4978
X4.475Y-3.675
T7
X3.96Y-2.9659
X3.96Y-3.4699
T8
X4.2437Y-2.1437
X4.4406Y-2.1437
X4.6374Y-2.1437
T9
X3.7787Y-3.0386
X3.7787Y-3.3614
T10
X3.8Y-1.9
X3.8Y-4.25
X7.175Y-1.9
X7.175Y-4.25
M30
