%TF.GenerationSoftware,KiCad,Pcbnew,8.0.0-rc1-67-g7b24167398*%
%TF.CreationDate,2024-01-29T15:53:44-08:00*%
%TF.ProjectId,test,74657374-2e6b-4696-9361-645f70636258,rev?*%
%TF.SameCoordinates,Original*%
%TF.FileFunction,Soldermask,Bot*%
%TF.FilePolarity,Negative*%
%FSLAX46Y46*%
G04 Gerber Fmt 4.6, Leading zero omitted, Abs format (unit mm)*
G04 Created by KiCad (PCBNEW 8.0.0-rc1-67-g7b24167398) date 2024-01-29 15:53:44*
%MOMM*%
%LPD*%
G01*
G04 APERTURE LIST*
%ADD10C,3.800000*%
%ADD11C,1.700000*%
%ADD12C,2.000000*%
%ADD13O,2.000000X1.600000*%
%ADD14O,3.500000X2.200000*%
%ADD15R,2.500000X1.500000*%
%ADD16O,2.500000X1.500000*%
%ADD17C,2.340000*%
%ADD18O,1.778000X3.556000*%
%ADD19C,3.500000*%
%ADD20R,3.000000X3.000000*%
%ADD21C,3.000000*%
G04 APERTURE END LIST*
D10*
%TO.C,H4*%
X182245000Y-107950000D03*
%TD*%
%TO.C,H2*%
X182245000Y-48260000D03*
%TD*%
D11*
%TO.C,M1*%
X180975000Y-60325000D03*
X180975000Y-67945000D03*
X158115000Y-60325000D03*
X158115000Y-67945000D03*
%TD*%
D10*
%TO.C,H3*%
X96520000Y-107950000D03*
%TD*%
D12*
%TO.C,SW1*%
X107165000Y-88845000D03*
X113665000Y-88845000D03*
X107165000Y-93345000D03*
X113665000Y-93345000D03*
%TD*%
D13*
%TO.C,J3*%
X150610000Y-99170000D03*
X150610000Y-96630000D03*
X150610000Y-94090000D03*
X150610000Y-91550000D03*
%TD*%
D14*
%TO.C,SW2*%
X95980000Y-77180000D03*
X95980000Y-85380000D03*
D15*
X95980000Y-79280000D03*
D16*
X95980000Y-81280000D03*
X95980000Y-83280000D03*
%TD*%
D17*
%TO.C,RV1*%
X117790000Y-54450000D03*
X112790000Y-54450000D03*
X107790000Y-54450000D03*
%TD*%
D18*
%TO.C,U3*%
X120015000Y-81191500D03*
X122555000Y-81191500D03*
X125095000Y-81191500D03*
X127635000Y-81191500D03*
X130175000Y-81191500D03*
X132715000Y-81191500D03*
X135255000Y-81191500D03*
X120015000Y-64427500D03*
X122555000Y-64427500D03*
X125095000Y-64427500D03*
X127635000Y-64427500D03*
X130175000Y-64427500D03*
X132715000Y-64427500D03*
X135255000Y-64427500D03*
%TD*%
D10*
%TO.C,H1*%
X96520000Y-48260000D03*
%TD*%
D19*
%TO.C,J1*%
X127285000Y-58135000D03*
X127285000Y-88135000D03*
D20*
X100585000Y-88135000D03*
D21*
X100585000Y-75335000D03*
%TD*%
M02*
